<?xml version="1.0" encoding="UTF-8"?>
<svg id="Layer_2" data-name="Layer 2" xmlns="http://www.w3.org/2000/svg" xmlns:xlink="http://www.w3.org/1999/xlink" viewBox="0 0 4326.43 778.18">
  <defs>
    <style>
      .cls-1 {
        fill: url(#linear-gradient-13);
      }

      .cls-2 {
        fill: url(#linear-gradient-10);
      }

      .cls-3 {
        fill: url(#linear-gradient-12);
      }

      .cls-4 {
        fill: url(#linear-gradient-3);
      }

      .cls-5 {
        fill: url(#linear-gradient-5);
      }

      .cls-6 {
        fill: url(#linear-gradient-8);
      }

      .cls-7 {
        stroke: url(#linear-gradient-4);
      }

      .cls-7, .cls-8 {
        fill: none;
        stroke-miterlimit: 10;
      }

      .cls-8 {
        stroke: url(#linear-gradient-2);
      }

      .cls-9 {
        fill: url(#linear-gradient-7);
      }

      .cls-10 {
        fill: url(#linear-gradient-9);
      }

      .cls-11 {
        fill: url(#linear-gradient-11);
      }

      .cls-12 {
        fill: url(#linear-gradient-6);
      }

      .cls-13 {
        fill: url(#linear-gradient);
      }
    </style>
    <linearGradient id="linear-gradient" x1="89.26" y1="719.09" x2="946.77" y2="-26.57" gradientUnits="userSpaceOnUse">
      <stop offset="0" stop-color="#f0c3ee"/>
      <stop offset="1" stop-color="#58c9f1"/>
    </linearGradient>
    <linearGradient id="linear-gradient-2" x1="0" y1="389.09" x2="807.75" y2="389.09" xlink:href="#linear-gradient"/>
    <linearGradient id="linear-gradient-3" x1="164.01" y1="805.05" x2="1021.52" y2="59.39" xlink:href="#linear-gradient"/>
    <linearGradient id="linear-gradient-4" x1="690.47" y1="231.28" x2="955.54" y2="231.28" xlink:href="#linear-gradient"/>
    <linearGradient id="linear-gradient-5" x1="1604.42" y1="1424.63" x2="3762.14" y2="-451.65" xlink:href="#linear-gradient"/>
    <linearGradient id="linear-gradient-6" x1="1604.42" y1="1424.63" x2="3762.14" y2="-451.65" xlink:href="#linear-gradient"/>
    <linearGradient id="linear-gradient-7" x1="1604.42" y1="1424.63" x2="3762.14" y2="-451.65" xlink:href="#linear-gradient"/>
    <linearGradient id="linear-gradient-8" x1="1604.42" y1="1424.63" x2="3762.14" y2="-451.65" xlink:href="#linear-gradient"/>
    <linearGradient id="linear-gradient-9" x1="1604.42" y1="1424.63" x2="3762.14" y2="-451.65" xlink:href="#linear-gradient"/>
    <linearGradient id="linear-gradient-10" x1="1604.42" y1="1424.63" x2="3762.14" y2="-451.65" xlink:href="#linear-gradient"/>
    <linearGradient id="linear-gradient-11" x1="1604.42" y1="1424.63" x2="3762.14" y2="-451.65" xlink:href="#linear-gradient"/>
    <linearGradient id="linear-gradient-12" x1="1604.42" y1="1424.63" x2="3762.14" y2="-451.65" xlink:href="#linear-gradient"/>
    <linearGradient id="linear-gradient-13" x1="1604.42" y1="1424.63" x2="3762.14" y2="-451.65" xlink:href="#linear-gradient"/>
  </defs>
  <g id="Layer_1-2" data-name="Layer 1">
    <g>
      <g>
        <path class="cls-13" d="M725.21,268.85c-29.05-27.67-63.14-50.82-94.24-75.05-26.69-20.8-53.09-41.97-79.14-63.57-37.83-31.37-73.46-68.93-114.38-96.32l-41.6-27.85c-12.15-8.13-27.7-7.28-39.04,2.13l-13.72,11.38-.07-.67C-179.97,419.47-5.18,672.79,218.98,750.69c18.57,6.45,36.6,12.44,56.02,16.32,52.39,10.46,106.44,13.12,159.58,8.46,10.67-.94,21.3-2.19,31.9-3.75.73-.11,1.45-.22,2.19-.33,60-9.11,118.98-28.69,172.08-58.88,10.5-5.97,20.77-12.36,30.79-19.17,25.14-17.09,48.66-36.92,69.17-59.71,2.23-2.47,4.41-4.98,6.56-7.52,88.69-104.95,77.09-262.78-22.06-357.26ZM649.83,602.35c-1.87,3.15-5.69,4.88-8.68,6.88-3.99,2.67-8,5.33-12.08,7.87-7.38,4.6-14.93,8.92-22.64,12.97-7.5,3.95-15.15,7.63-22.93,11.04-7.59,3.34-15.31,6.41-23.12,9.23-7.64,2.76-15.38,5.27-23.19,7.54-7.65,2.22-15.38,4.21-23.16,5.97-7.63,1.72-15.31,3.23-23.02,4.52-7.56,1.26-15.16,2.33-22.77,3.2-7.45.84-14.94,1.51-22.42,1.99-7.31.47-14.63.77-21.96.91-7.13.13-14.26.11-21.38-.05-6.91-.17-13.81-.46-20.7-.9-6.65-.41-13.29-.95-19.92-1.61-6.35-.64-12.7-1.37-19.02-2.21-6.02-.81-12.03-1.7-18.02-2.69-5.65-.93-11.29-1.95-16.91-3.05-5.24-1.02-10.47-2.12-15.68-3.28-4.8-1.07-9.59-2.2-14.35-3.39-4.32-1.08-8.63-2.21-12.92-3.39-3.81-1.04-7.59-2.13-11.37-3.25-3.25-.97-6.5-1.97-9.72-3-2.66-.85-5.32-1.73-7.96-2.63-2.04-.69-4.07-1.4-6.09-2.14-1.37-.5-2.74-1-4.11-1.52-.43-.16-.86-.32-1.28-.49-.32-.12-.61-.29-.89-.47-3.27-2.23-2.62-7.57.24-9.85,1.26-1.01,2.86-1.55,4.46-1.82,4.35-.73,8.13.66,12.14,2.08,4.96,1.75,9.94,3.44,14.95,5.05,9.31,2.99,18.72,5.71,28.2,8.15,9.11,2.34,18.29,4.43,27.52,6.25,8.89,1.75,17.82,3.26,26.8,4.5,8.64,1.2,17.31,2.16,26.01,2.89,8.37.7,16.77,1.18,25.17,1.43,8.09.24,16.19.28,24.28.11,7.79-.17,15.57-.53,23.34-1.08,7.47-.53,14.91-1.23,22.34-2.12,7.12-.84,14.21-1.85,21.29-3.01,6.75-1.11,13.48-2.37,20.18-3.77,6.37-1.33,12.71-2.79,19.02-4.38,5.97-1.5,11.91-3.12,17.8-4.84,5.54-1.63,11.06-3.35,16.53-5.17,5.11-1.7,10.18-3.48,15.22-5.35,4.64-1.73,9.26-3.53,13.84-5.4,4.17-1.7,8.3-3.47,12.41-5.29,3.67-1.63,7.31-3.32,10.93-5.05,3.15-1.51,6.29-3.07,9.39-4.66,5.56-2.86,11.13-5.73,16.4-9.06,2.76-1.74,5.42-3.65,8.4-5.04,2.9-1.35,6.61-2.16,8.82.73.54.69.97,1.47,1.21,2.31.43,1.49.22,3.01-.58,4.34ZM308.35,575.46l.04-.09c2.42-6.22,13.93.02,21.95,2.17,12.23,4.02,28.98,9.52,42.76,14.05,8.6,2.82,17.21,5.56,25.77,8.48,3.97,1.35,14.1,2.91,14.67,8.45.66,6.4-6.15,13.32-10.85,18.34-14.12,14.78-37.71,18.55-56.2,10.95-18.9-7.41-31.24-25.56-36.29-44.74-1.86-7.51-3.19-12.99-1.86-17.6ZM477.7,593.74c7.98-4.26,16.05-8.35,24.07-12.51,12.87-6.68,28.52-14.81,39.95-20.74,7.57-3.42,17.92-11.42,21.31-5.68l.05.09c2.07,4.34,1.63,9.96,1,17.67-1.89,19.74-11.16,39.64-28.62,49.99-17.02,10.47-40.91,10.55-57.23-1.77-5.44-4.19-13.28-9.93-13.65-16.35-.33-5.56,9.41-8.72,13.12-10.71ZM720.87,454.71c-.75,23.35-6.24,46.33-15.68,67.55-8.88,19.95-21.07,38.2-35.26,54.5-199.51-106.08-386.98-18.15-491,53.49-3.35,2.31-32.62-27.3-35.86-30.68-10.93-11.39-20.68-23.93-28.71-37.53-16.72-28.32-25.24-60.66-24.93-93.53.95-100.87,73.2-190.44,140.58-258.32,28.54-28.76,62.29-54.09,92.3-82.16,16.94-15.84,48.84-55.81,75.66-37.85,64.47,43.16,122.84,94.49,182.48,143.91,49.97,41.4,103.7,81.49,127.2,144.5,9.03,24.22,14.06,50.1,13.22,76.11Z"/>
        <path class="cls-8" d="M725.21,268.85c-29.05-27.67-63.14-50.82-94.24-75.05-26.69-20.8-53.09-41.97-79.14-63.57-37.83-31.37-73.46-68.93-114.38-96.32l-41.6-27.85c-12.15-8.13-27.7-7.28-39.04,2.13l-13.72,11.38-.07-.67C-179.97,419.47-5.18,672.79,218.98,750.69c18.57,6.45,36.6,12.44,56.02,16.32,52.39,10.46,106.44,13.12,159.58,8.46,10.67-.94,21.3-2.19,31.9-3.75.73-.11,1.45-.22,2.19-.33,60-9.11,118.98-28.69,172.08-58.88,10.5-5.97,20.77-12.36,30.79-19.17,25.14-17.09,48.66-36.92,69.17-59.71,2.23-2.47,4.41-4.98,6.56-7.52,88.69-104.95,77.09-262.78-22.06-357.26ZM649.83,602.35c-1.87,3.15-5.69,4.88-8.68,6.88-3.99,2.67-8,5.33-12.08,7.87-7.38,4.6-14.93,8.92-22.64,12.97-7.5,3.95-15.15,7.63-22.93,11.04-7.59,3.34-15.31,6.41-23.12,9.23-7.64,2.76-15.38,5.27-23.19,7.54-7.65,2.22-15.38,4.21-23.16,5.97-7.63,1.72-15.31,3.23-23.02,4.52-7.56,1.26-15.16,2.33-22.77,3.2-7.45.84-14.94,1.51-22.42,1.99-7.31.47-14.63.77-21.96.91-7.13.13-14.26.11-21.38-.05-6.91-.17-13.81-.46-20.7-.9-6.65-.41-13.29-.95-19.92-1.61-6.35-.64-12.7-1.37-19.02-2.21-6.02-.81-12.03-1.7-18.02-2.69-5.65-.93-11.29-1.95-16.91-3.05-5.24-1.02-10.47-2.12-15.68-3.28-4.8-1.07-9.59-2.2-14.35-3.39-4.32-1.08-8.63-2.21-12.92-3.39-3.81-1.04-7.59-2.13-11.37-3.25-3.25-.97-6.5-1.97-9.72-3-2.66-.85-5.32-1.73-7.96-2.63-2.04-.69-4.07-1.4-6.09-2.14-1.37-.5-2.74-1-4.11-1.52-.43-.16-.86-.32-1.28-.49-.32-.12-.61-.29-.89-.47-3.27-2.23-2.62-7.57.24-9.85,1.26-1.01,2.86-1.55,4.46-1.82,4.35-.73,8.13.66,12.14,2.08,4.96,1.75,9.94,3.44,14.95,5.05,9.31,2.99,18.72,5.71,28.2,8.15,9.11,2.34,18.29,4.43,27.52,6.25,8.89,1.75,17.82,3.26,26.8,4.5,8.64,1.2,17.31,2.16,26.01,2.89,8.37.7,16.77,1.18,25.17,1.43,8.09.24,16.19.28,24.28.11,7.79-.17,15.57-.53,23.34-1.08,7.47-.53,14.91-1.23,22.34-2.12,7.12-.84,14.21-1.85,21.29-3.01,6.75-1.11,13.48-2.37,20.18-3.77,6.37-1.33,12.71-2.79,19.02-4.38,5.97-1.5,11.91-3.12,17.8-4.84,5.54-1.63,11.06-3.35,16.53-5.17,5.11-1.7,10.18-3.48,15.22-5.35,4.64-1.73,9.26-3.53,13.84-5.4,4.17-1.7,8.3-3.47,12.41-5.29,3.67-1.63,7.31-3.32,10.93-5.05,3.15-1.51,6.29-3.07,9.39-4.66,5.56-2.86,11.13-5.73,16.4-9.06,2.76-1.74,5.42-3.65,8.4-5.04,2.9-1.35,6.61-2.16,8.82.73.54.69.97,1.47,1.21,2.31.43,1.49.22,3.01-.58,4.34ZM308.35,575.46l.04-.09c2.42-6.22,13.93.02,21.95,2.17,12.23,4.02,28.98,9.52,42.76,14.05,8.6,2.82,17.21,5.56,25.77,8.48,3.97,1.35,14.1,2.91,14.67,8.45.66,6.4-6.15,13.32-10.85,18.34-14.12,14.78-37.71,18.55-56.2,10.95-18.9-7.41-31.24-25.56-36.29-44.74-1.86-7.51-3.19-12.99-1.86-17.6ZM477.7,593.74c7.98-4.26,16.05-8.35,24.07-12.51,12.87-6.68,28.52-14.81,39.95-20.74,7.57-3.42,17.92-11.42,21.31-5.68l.05.09c2.07,4.34,1.63,9.96,1,17.67-1.89,19.74-11.16,39.64-28.62,49.99-17.02,10.47-40.91,10.55-57.23-1.77-5.44-4.19-13.28-9.93-13.65-16.35-.33-5.56,9.41-8.72,13.12-10.71ZM720.87,454.71c-.75,23.35-6.24,46.33-15.68,67.55-8.88,19.95-21.07,38.2-35.26,54.5-199.51-106.08-386.98-18.15-491,53.49-3.35,2.31-32.62-27.3-35.86-30.68-10.93-11.39-20.68-23.93-28.71-37.53-16.72-28.32-25.24-60.66-24.93-93.53.95-100.87,73.2-190.44,140.58-258.32,28.54-28.76,62.29-54.09,92.3-82.16,16.94-15.84,48.84-55.81,75.66-37.85,64.47,43.16,122.84,94.49,182.48,143.91,49.97,41.4,103.7,81.49,127.2,144.5,9.03,24.22,14.06,50.1,13.22,76.11Z"/>
      </g>
      <g>
        <path class="cls-4" d="M691.89,218.66c5.43-1.66,102.28-25.51,144.65-118.13,16.43,47.72,34.55,99.23,117.66,144.77-55.17,14.66-103.9,44.09-144.3,116.77-16.04-55.24-51.43-113.76-118.01-143.42Z"/>
        <path class="cls-7" d="M691.89,218.66c5.43-1.66,102.28-25.51,144.65-118.13,16.43,47.72,34.55,99.23,117.66,144.77-55.17,14.66-103.9,44.09-144.3,116.77-16.04-55.24-51.43-113.76-118.01-143.42Z"/>
      </g>
    </g>
    <g>
      <path class="cls-5" d="M1283.36,197.29v438.4h-72.88v-182.49h-219.2v182.49h-72.88v-182.49l72.88-73.43h219.2v-182.49h72.88Z"/>
      <path class="cls-12" d="M1512.97,562.26l-37.26,73.43h-81.1l219.2-438.4,146.32,292.63h-82.2l-64.12-128.78-64.66,128.78-36.17,72.34ZM1833,635.69h-81.65l-36.17-72.88h81.1l36.72,72.88Z"/>
      <path class="cls-9" d="M2160.71,416.49c0,30.14-5.48,58.09-16.99,84.39-12.06,26.85-27.4,49.87-47.13,70.14-19.73,19.73-43.29,35.62-70.14,47.13-26.3,11.51-54.8,17.54-84.94,17.54h-145.77l72.88-73.43h72.88c20.28,0,39.46-3.84,56.99-10.96,17.54-7.67,33.43-18.08,46.58-31.78s23.56-29.04,31.24-46.58c7.67-18.08,11.51-36.72,11.51-56.45s-3.84-38.36-11.51-56.44c-7.67-17.54-18.08-32.88-31.78-46.58s-29.04-24.11-46.58-31.78c-17.54-7.12-36.72-10.96-56.44-10.96h-72.88l-72.88-73.43h145.77c30.14,0,58.09,6.03,84.94,17.54,26.3,11.51,49.87,27.4,69.6,47.13,20.28,20.28,35.62,43.29,47.68,70.14,11.51,26.3,16.99,54.25,16.99,84.39Z"/>
      <path class="cls-6" d="M2469.24,197.29v73.43h-219.2l-72.88-73.43h292.09ZM2250.04,380.32h219.2v72.88h-292.09v-72.88h72.88ZM2250.04,562.26h219.2v73.43h-292.09v-6.03l72.88-67.4Z"/>
      <path class="cls-10" d="M2790.37,453.2c-35.62,0-65.76-12.6-90.42-37.26-24.66-25.21-37.26-55.35-37.26-90.97s12.6-64.66,37.26-89.87,54.8-37.81,90.42-37.81v73.43c-7.67,0-14.8,1.1-21.37,3.84-7.12,2.74-12.6,6.58-18.08,12.06-4.93,4.93-8.77,10.96-11.51,17.54-2.74,6.58-3.84,13.7-3.84,20.82,0,15.34,4.93,27.95,15.34,38.91,10.96,10.96,23.56,16.44,39.46,16.44h109.05c35.62,0,65.76,12.6,90.42,37.26s37.81,55.35,37.81,90.42-12.6,65.21-37.81,90.42-54.8,37.26-90.42,37.26v-73.43c7.67,0,14.8-1.1,21.37-3.84,7.12-2.74,13.15-6.58,18.08-11.51,4.93-4.93,8.77-10.41,11.51-17.54,2.74-6.58,4.38-13.7,4.38-21.37,0-14.8-6.03-27.4-16.44-38.36-10.96-10.96-23.56-16.44-38.91-16.44h-109.05Z"/>
      <path class="cls-2" d="M3321.93,197.29v73.43h-145.77v364.97h-73.43V197.29h219.2Z"/>
      <path class="cls-11" d="M3676.5,261.95c43.29,42.75,65.21,94.26,65.21,154.54s-21.92,112.34-65.21,154.54c-42.75,42.74-93.71,64.66-154.54,64.66s-111.79-21.92-154.54-64.66c-42.74-42.75-64.66-93.71-64.66-154.54s21.92-111.79,64.66-154.54c42.2-42.74,93.71-64.66,154.54-64.66s111.79,21.92,154.54,64.66ZM3418.39,313.46c-28.5,28.5-42.2,63.02-42.2,103.02s13.7,75.08,42.2,103.57,63.57,42.2,103.57,42.2,74.53-13.7,103.02-42.2,42.74-63.57,42.74-103.57-14.25-74.53-42.74-103.02-63.02-42.74-103.02-42.74-74.53,13.7-103.57,42.74Z"/>
      <path class="cls-3" d="M3925.3,478.41l89.87,157.28h-83.84l-127.14-219.75,65.21.55c19.73,0,36.72-7.12,50.96-21.37,14.8-14.25,21.92-31.78,21.92-52.06s-7.12-36.72-21.92-50.96c-14.25-14.25-31.24-21.37-50.96-21.37h-146.32l-8.22-8.22-37.81-65.21h192.35c40,0,74.53,14.25,103.02,42.74,28.5,29.04,42.74,63.02,42.74,103.03,0,30.69-8.22,58.09-25.76,82.75-16.99,24.66-38.36,42.2-64.12,52.61Z"/>
      <path class="cls-1" d="M4326.43,197.29v73.43h-219.2l-72.88-73.43h292.09ZM4107.23,380.32h219.2v72.88h-292.09v-72.88h72.88ZM4107.23,562.26h219.2v73.43h-292.09v-6.03l72.88-67.4Z"/>
    </g>
  </g>
</svg>